<svg xmlns="http://www.w3.org/2000/svg" xmlns:xlink="http://www.w3.org/1999/xlink" width="20px" height="45px" viewBox="0 0 20 45"><title>B</title><desc>Created with Sketch.</desc><g id="Design" stroke="none" stroke-width="1" fill="none" fill-rule="evenodd"><g id="B" fill="#FFFFFF"><path d="M18.5049,21.3849205 L18.2109,21.6856023 C16.1909,23.7525341 16.1909,27.1162841 18.2109,29.1842386 L18.5049,29.4838977 L18.5049,38.6833295 C18.5049,41.4610568 16.2949,43.7202614 13.5789,43.7202614 L6.1769,43.7202614 C3.4609,43.7202614 1.2509,41.4610568 1.2509,38.6833295 L1.2509,29.4838977 L1.5449,29.1842386 C3.5659,27.1162841 3.5659,23.7525341 1.5449,21.6856023 L1.2509,21.3849205 L1.2509,15.9726477 C1.2509,13.1938977 3.4609,10.9346932 6.1769,10.9346932 L13.5789,10.9346932 C16.2949,10.9346932 18.5049,13.1938977 18.5049,15.9726477 L18.5049,21.3849205 Z M6.8019,9.65526136 L12.9529,9.65526136 L12.9529,5.25651136 L6.8019,5.25651136 L6.8019,9.65526136 Z M8.6519,2.72423864 C8.6519,2.03389773 9.2019,1.47139773 9.8779,1.47139773 C10.5539,1.47139773 11.1029,2.03389773 11.1029,2.72423864 L11.1029,3.97707955 L8.6519,3.97707955 L8.6519,2.72423864 Z M13.5789,3.36446591 L16.3549,3.36446591 C17.5399,3.36446591 18.5049,4.350375 18.5049,5.56332955 C18.5049,6.77628409 17.5399,7.76219318 16.3549,7.76219318 L14.2039,7.76219318 L14.2039,4.61730682 C14.2039,4.26446591 13.9239,3.97707955 13.5789,3.97707955 L13.5789,3.36446591 Z M14.4609,9.727875 L14.2039,9.61435227 L14.2039,9.041625 L16.3549,9.041625 C18.2299,9.041625 19.7559,7.48094318 19.7559,5.56332955 C19.7559,3.64571591 18.2299,2.08503409 16.3549,2.08503409 L12.2729,2.08503409 L12.2009,1.88151136 C11.8479,0.871056818 10.9149,0.191965909 9.8779,0.191965909 C8.5129,0.191965909 7.4009,1.32821591 7.4009,2.72423864 L7.4009,3.97707955 L6.1769,3.97707955 C5.8319,3.97707955 5.5509,4.26446591 5.5509,4.61730682 L5.5509,9.68901136 L5.2939,9.727875 C2.2759,10.1727614 -0.0001,12.8574205 -0.0001,15.9726477 L-0.0001,21.6498068 C-0.0001,21.8206023 0.0659,21.9811705 0.1829,22.1018523 L0.6599,22.5896932 C2.1939,24.1585568 2.1939,26.7112841 0.6599,28.2801477 L0.1839,28.7679886 C0.0669,28.886625 -0.0001,29.0523068 -0.0001,29.2200341 L-0.0001,38.6833295 C-0.0001,42.1657159 2.7709,44.9996932 6.1769,44.9996932 L13.5789,44.9996932 C16.9849,44.9996932 19.7559,42.1657159 19.7559,38.6833295 L19.7559,29.2200341 C19.7559,29.0492386 19.6909,28.8886705 19.5719,28.7679886 L19.0959,28.2801477 C17.5619,26.7112841 17.5619,24.1585568 19.0959,22.5896932 L19.5719,22.1018523 C19.6909,21.9811705 19.7559,21.8206023 19.7559,21.6498068 L19.7559,15.9726477 C19.7559,12.8574205 17.4799,10.1727614 14.4609,9.727875 L14.4609,9.727875 Z" id="Fill-1"></path><path d="M6.39535634,15.2427735 C6.72911964,15.2427735 7,14.963398 7,14.6213868 C7,14.2783813 6.72911964,14 6.39535634,14 C5.07481458,14 4,15.1035829 4,16.4606915 L4,20.5260522 C4,20.6662371 4.04740406,20.8044335 4.13447275,20.915786 C6.27926475,23.664801 6.27926475,27.654601 4.13447275,30.4046102 C4.04740406,30.5149685 4,30.6531649 4,30.794344 L4,38.5383142 C4,39.8954229 5.07481458,41 6.39535634,41 C6.72911964,41 7,40.7206245 7,40.3786132 C7,40.0356078 6.72911964,39.7562323 6.39535634,39.7562323 C5.74137375,39.7562323 5.20928733,39.2104062 5.20928733,38.5383142 L5.20928733,31.008101 L5.26636569,30.9285635 C7.51080297,27.8266009 7.51080297,23.4928011 5.26636569,20.3908385 L5.20928733,20.311301 L5.20928733,16.4606915 C5.20928733,15.7885996 5.74137375,15.2427735 6.39535634,15.2427735" id="Fill-4"></path></g></g></svg>