<svg xmlns="http://www.w3.org/2000/svg" xmlns:xlink="http://www.w3.org/1999/xlink" width="50px" height="45px" viewBox="0 0 50 45"><title>Fruite</title><desc>Created with Sketch.</desc><defs><polygon id="path-1" points="0.02521875 0.691102703 29.8251427 0.691102703 29.8251427 36 0.02521875 36"></polygon><polygon id="path-3" points="0 0.533835294 32.3830941 0.533835294 32.3830941 31.9352471 0 31.9352471"></polygon></defs><g id="Design" stroke="none" stroke-width="1" fill="none" fill-rule="evenodd"><g id="Fruite"><g id="Group-3" transform="translate(20.000000, 9.000000)"><mask id="mask-2" fill="white"><use xlink:href="#path-1"></use></mask><g id="Clip-2"></g><path d="M24.3317812,27.3885081 C20.0230312,31.8593189 14.3820937,34.5291568 9.23896875,34.5291568 C5.69615625,34.5291568 4.64146875,33.8694811 2.72709375,32.6736973 C2.33709375,32.4294811 1.91803125,32.1677514 1.44271875,31.8894811 L1.44271875,31.567427 C11.7186562,31.1831027 22.7070937,22.5499135 22.7070937,14.6678595 C22.7070937,9.82050811 21.6374062,7.11953514 19.9527187,4.9896973 C20.3511562,4.87002162 20.7402187,4.62677838 20.9961562,4.16850811 C21.5661562,4.54504865 22.1361562,4.7844 22.6958437,5.00234595 C23.6989687,5.39542703 24.6477187,5.76515676 25.7127187,7.05434595 C27.8980312,9.70180541 28.3761562,12.3852649 28.3761562,13.1967243 C28.3761562,13.315427 28.3817812,13.4856973 28.3892812,13.7007243 C28.4624062,15.9687243 28.6855312,22.8700216 24.3317812,27.3885081 L24.3317812,27.3885081 Z M1.44271875,29.6506703 C1.89459375,29.1729405 3.75365625,27.5432108 9.45365625,25.6673189 C15.9777188,23.5209405 19.8711563,18.8584541 19.8711563,13.1967243 C19.8711563,12.2743459 19.8870938,11.3967243 19.9020938,10.5765081 C19.9236563,9.42645405 19.9377188,8.4204 19.9124063,7.53499459 C20.7899063,9.21629189 21.2895938,11.3801838 21.2895938,14.6678595 C21.2895938,21.7092649 10.8702188,29.7090486 1.44271875,30.0962919 L1.44271875,29.6506703 Z M18.4536562,2.89780541 C18.4536562,2.66429189 18.4236562,2.44148108 18.3945937,2.23812973 C18.3917812,2.21380541 18.3870937,2.18948108 18.3833437,2.16418378 C18.4058437,2.16321081 18.4283437,2.16223784 18.4536562,2.16223784 C19.3189687,2.16223784 19.8711563,2.59812973 19.8711563,2.89780541 C19.8711563,3.48548108 19.7877188,3.63337297 19.1624062,3.63337297 C18.5370937,3.63337297 18.4536562,3.48548108 18.4536562,2.89780541 L18.4536562,2.89780541 Z M29.7945937,13.1967243 C29.7945937,11.9999676 29.1655312,8.97596757 26.7880312,6.09791351 C25.4867812,4.5216973 24.2699062,4.04591351 23.1955312,3.62558919 C22.4745937,3.34342703 21.8455312,3.08267027 21.2417812,2.51931892 C21.0158437,1.46948108 19.8767812,0.691102703 18.4536562,0.691102703 C18.0833437,0.691102703 17.5508437,0.738778378 17.2114687,1.14645405 C16.8645937,1.56483243 16.9386562,2.07953514 16.9930312,2.45607568 C17.0127187,2.59229189 17.0361562,2.74115676 17.0361562,2.89780541 C17.0361562,3.90677838 17.4055312,4.45748108 17.8695937,4.76007568 C17.8967812,4.80385946 17.9155312,4.85056216 17.9520937,4.88948108 C18.5755312,5.53650811 18.5314687,7.97088649 18.4855312,10.5482919 C18.4695937,11.3782378 18.4536562,12.2646162 18.4536562,13.1967243 C18.4536562,18.1841838 14.9295937,22.3212649 9.02615625,24.2652649 C1.72584375,26.6675351 0.27740625,28.7545622 0.13584375,28.9841838 C0.06365625,29.1028865 0.02521875,29.2391027 0.02521875,29.3792108 L0.02521875,32.3214811 C0.02521875,32.5909946 0.16678125,32.8391027 0.39365625,32.9665622 C1.00584375,33.3148865 1.52334375,33.6379135 1.99584375,33.9336973 C3.98709375,35.1781297 5.30240625,36.0002919 9.23896875,36.0002919 C14.7486562,36.0002919 20.7655312,33.1699135 25.3339687,28.4286162 C28.5111562,25.1302378 30.0158437,20.1593189 29.8058437,13.6520757 C29.7992812,13.4584541 29.7945937,13.3037514 29.7945937,13.1967243 L29.7945937,13.1967243 Z" id="Fill-1" fill="#FFFFFF" mask="url(#mask-2)"></path></g><g id="Group-6"><mask id="mask-4" fill="white"><use xlink:href="#path-3"></use></mask><g id="Clip-5"></g><path d="M16.1917412,29.2048941 C14.7523588,29.2048941 13.7041235,29.7601882 12.9402706,30.1658353 C12.5481529,30.3738353 12.1783588,30.5696 11.9667706,30.5696 C11.3756824,30.5696 9.30541765,30.4368941 7.53700588,28.7220706 L7.38171176,28.5714824 C5.59388824,26.8444235 1.40871176,22.8011294 1.40871176,14.8698353 C1.40871176,10.2119529 5.60844706,8.04348235 8.44741765,8.04348235 C13.7293588,8.04348235 15.6685941,9.86654118 15.6841235,9.88065882 C15.6850941,9.88254118 15.6870353,9.88348235 15.6889765,9.88536471 C15.7180941,9.91265882 15.7559471,9.93054118 15.7889471,9.95312941 C15.8287412,9.98042353 15.8646529,10.0124235 15.9083294,10.0312471 C15.9393882,10.0453647 15.9753,10.0463059 16.0102412,10.0557176 C16.0616824,10.0688941 16.1131235,10.0848941 16.1665059,10.0858353 C16.1752412,10.0867765 16.1820353,10.0905412 16.1917412,10.0905412 C16.2276529,10.0905412 16.2596824,10.0754824 16.2946235,10.0707765 C16.3402412,10.0641882 16.3848882,10.0594824 16.4295353,10.0444235 C16.4741824,10.0284235 16.5130059,10.0039529 16.5528,9.98042353 C16.5799765,9.96442353 16.6120059,9.95595294 16.6372412,9.93618824 C16.6615059,9.91642353 19.0967118,8.04348235 23.9350941,8.04348235 C26.7740647,8.04348235 30.9747706,10.2119529 30.9747706,14.8698353 C30.9747706,23.0966588 27.3622412,26.4067765 25.4210647,28.1846588 C25.2094765,28.3785412 25.0163294,28.5573647 24.8455059,28.7220706 C23.0770941,30.4368941 21.0068294,30.5696 20.4157412,30.5696 C20.2041529,30.5696 19.8343588,30.3738353 19.4432118,30.1658353 C18.6783882,29.7601882 17.6311235,29.2048941 16.1917412,29.2048941 M25.8403588,29.6877176 C26.0024471,29.5305412 26.1868588,29.3611294 26.3887412,29.1776 C28.4832706,27.2585412 32.3830941,23.6858353 32.3830941,14.8698353 C32.3830941,9.28112941 27.3418588,6.67783529 23.9350941,6.67783529 C20.5448294,6.67783529 18.2377412,7.51265882 16.9526824,8.15642353 C17.3215059,3.85148235 19.5781235,1.89948235 21.8230941,1.89948235 C22.2123,1.89948235 22.5267706,1.5936 22.5267706,1.21618824 C22.5267706,0.838776471 22.2123,0.533835294 21.8230941,0.533835294 C18.9918882,0.533835294 15.9646235,2.93007059 15.5414471,8.14607059 C14.3350059,7.49477647 12.1084765,6.67783529 8.44741765,6.67783529 C5.04065294,6.67783529 -0.000582352941,9.28112941 -0.000582352941,14.8698353 C-0.000582352941,23.3686588 4.47674118,27.6924235 6.38782941,29.5380706 L6.54215294,29.6877176 C8.69297647,31.7733647 11.2388294,31.9352471 11.9667706,31.9352471 C12.5374765,31.9352471 13.0615941,31.6566588 13.6167706,31.3639529 C14.3165647,30.9921882 15.1124471,30.5696 16.1917412,30.5696 C17.2700647,30.5696 18.0659471,30.9921882 18.7667118,31.3639529 C19.3209176,31.6566588 19.8450353,31.9352471 20.4157412,31.9352471 C21.1446529,31.9352471 23.6905059,31.7733647 25.8403588,29.6877176" id="Fill-4" fill="#FFFFFF" mask="url(#mask-4)"></path></g><path d="M9.58183109,25.6450679 C7.639497,23.9600882 3.59930973,20.4550217 3.59930973,13.7006273 C3.59930973,13.3136417 3.24194673,13 2.80075784,13 C2.357363,13 2,13.3136417 2,13.7006273 C2,21.0379127 6.35894624,24.820914 8.45569645,26.6390708 L8.6365839,26.7954091 C8.79100001,26.9314814 8.99615284,27 9.2002027,27 C9.40535554,27 9.61050837,26.9305163 9.76713043,26.792514 C10.0792716,26.5194044 10.0770656,26.0764459 9.76382151,25.8033363 L9.58183109,25.6450679 Z" id="Fill-7" fill="#FFFFFF"></path></g></g></svg>